<svg xmlns="http://www.w3.org/2000/svg" viewBox="0 0 1000 1000"><path d="M414.02 117.87c-11.11 10.91-61.47 60.32-111.64 109.92-85.21 84.07-91.53 90.77-91.53 96.7 0 12.64 11.3 20.3 21.64 14.74 8.23-4.21 221.56-216.2 222.71-220.98 2.49-9.96-5.94-19.92-16.85-19.92-2.31.01-11.88 7.67-24.33 19.54zm138.26-17.23c-5.17 2.49-9 11.49-7.47 17.62 1.34 5.17 217.35 219.45 223.86 221.94 10.34 3.83 20.49-3.83 20.49-15.7 0-5.94-6.32-12.64-89.62-94.79-49.21-48.45-99.39-98.05-111.64-109.92-22.98-22.02-26.05-23.75-35.62-19.15zM40.42 383.86c-10.53 4.79-20.11 13.6-25.47 23.74-3.83 7.09-4.21 11.11-4.79 48.26-.77 49.6.77 57.83 14.55 71.62 9.19 9 23.17 15.13 34.85 15.13 4.98 0 5.94 2.49 61.28 157.41 30.83 86.75 57.83 161.24 59.94 165.64 5.17 11.68 17.62 23.17 31.98 30.06l12.45 5.94h540.02l10.72-4.4c11.49-4.6 23.94-14.17 30.83-23.75 2.3-3.45 32.36-78.9 66.64-167.94l62.43-161.62 11.68-2.49c14.94-3.06 21.26-6.32 29.87-15.89 11.49-12.83 13.21-22.4 12.45-69.7-.57-37.15-.96-41.17-4.79-48.26-5.36-10.15-14.94-18.96-25.47-23.74-8.62-3.83-10.15-4.02-459.59-4.02-449.44-.01-450.97.18-459.58 4.01zm912.46 33.32c4.79 4.6 4.79 4.79 4.79 44.04 0 39.26 0 39.45-4.79 44.04l-4.6 4.79H51.71l-4.6-4.79c-4.79-4.6-4.79-4.79-4.79-44.04 0-39.26 0-39.45 4.79-44.04l4.6-4.79h896.58l4.59 4.79zm-53.42 132.51c-1.53 4.02-18.38 47.68-37.53 97.28-18.96 49.6-44.81 116.04-57.07 148.02-23.36 60.89-26.62 66.83-40.02 72.38-5.17 2.3-52.66 2.68-270.01 2.68H230.95l-7.47-4.4c-4.21-2.3-9-6.32-11.11-9-2.87-4.02-108.38-295.67-111.83-309.45l-1.15-4.6h802.55l-2.48 7.09z"/><path d="M283.61 609.06c-1.53.57-4.79 2.87-7.09 4.98l-4.4 3.83v176.94l4.4 4.02c6.13 5.74 16.66 5.55 22.02-.19 4.21-4.4 4.21-4.79 4.21-92.87 0-85.98-.19-88.66-3.83-92.3-2.11-2.11-4.6-3.83-5.55-3.83-.96 0-2.87-.38-4.4-.77-1.33-.58-3.82-.39-5.36.19zm129.07.57c-10.34 4.21-10.34 3.45-10.34 97.28v86.75l4.79 4.6c4.98 4.98 13.79 6.32 20.11 2.87 7.09-3.83 7.66-11.49 7.66-96.13 0-90.58 0-91.15-11.68-95.17-3.45-1.15-6.13-2.11-6.32-1.92-.2 0-2.11.76-4.22 1.72zm162.39.96c-3.45 1.53-7.08 4.98-8.04 7.66-2.68 7.28-2.49 166.98.19 175.03 3.83 10.72 17.43 13.41 25.66 4.98l4.79-4.6V619.4l-4.21-4.79c-5.75-6.13-10.73-7.28-18.39-4.02zm130.6-.19c-3.26 1.53-6.51 4.02-7.28 5.94-.57 1.72-1.15 42.51-1.15 90.77v87.71l4.4 4.02c6.51 6.13 17.04 5.74 22.21-.76 4.02-4.98 4.02-7.09 4.02-92.68v-87.51l-4.21-3.83c-6.12-5.58-11.1-6.53-17.99-3.66z"/></svg>