<svg xmlns="http://www.w3.org/2000/svg" width="32" height="32"><path d="M16 32c8.822 0 16-7.178 16-16S24.822 0 16 0 0 7.178 0 16s7.178 16 16 16zm0-31c8.271 0 15 6.729 15 15s-6.729 15-15 15S1 24.271 1 16 7.729 1 16 1zm4.061 20.768a.498.498 0 00.708 0 .5.5 0 000-.707L16 16.293V9.319a.5.5 0 00-1 0V16.5c0 .133.053.26.146.354l4.915 4.914zM3 16a1 1 0 102 0 1 1 0 00-2 0zm24 0a1 1 0 102 0 1 1 0 00-2 0zM15 4a1 1 0 102 0 1 1 0 00-2 0zm0 24a1 1 0 102 0 1 1 0 00-2 0zM7 8a1 1 0 102 0 1 1 0 00-2 0zm16 16a1 1 0 102 0 1 1 0 00-2 0zm1-16a1 1 0 102 0 1 1 0 00-2 0zM7 24a1 1 0 102 0 1 1 0 00-2 0z"/></svg>