<svg xmlns="http://www.w3.org/2000/svg" width="30" height="30" viewBox="0 0 1216 1024"><path d="M641.92 13.216c-18.56-17.056-49.248-17.056-67.808 0L8.096 354.688c-4.8 2.912-7.744 8.096-7.744 13.696v605.504c0 27.616 22.592 50.112 50.368 50.112h1114.56c27.776 0 50.368-22.496 50.368-50.112V368.384c0-5.6-2.944-10.784-7.744-13.696L641.92 13.216zM592.128 39.68c1.12-.672 2.112-1.472 3.04-2.368 3.456-3.424 8-5.312 12.832-5.312s9.376 1.888 12.8 5.312a18.048 18.048 0 0 0 3.04 2.368l551.264 332.608L775.808 610.24c-7.584 4.544-10.08 14.336-5.568 21.952A16.02 16.02 0 0 0 784 640c2.784 0 5.6-.704 8.16-2.24L1184 404.48v568.224L642.08 612.192c-17.216-13.728-51.008-13.728-67.072-.8L32 972.544V404.48l391.808 233.28c2.56 1.536 5.408 2.24 8.192 2.24a16.02 16.02 0 0 0 13.76-7.808c4.512-7.584 2.016-17.408-5.568-21.952L40.864 372.288 592.128 39.68zM1154.88 992H60.864l532.992-354.752c5.536-4.416 22.784-4.384 29.408.8L1154.88 992zM208 416h800c8.832 0 16-7.168 16-16s-7.168-16-16-16H208c-8.832 0-16 7.168-16 16s7.168 16 16 16z"/></svg>